<svg xmlns="http://www.w3.org/2000/svg" x="0px" y="0px"
width="64" height="64"
viewBox="0 0 172 172"
style=" fill:#000000;"><g fill="none" fill-rule="nonzero" stroke="none" stroke-width="1" stroke-linecap="butt" stroke-linejoin="miter" stroke-miterlimit="10" stroke-dasharray="" stroke-dashoffset="0" font-family="none" font-weight="none" font-size="none" text-anchor="none" style="mix-blend-mode: normal"><path d="M0,172v-172h172v172z" fill="none"></path><g fill="#000000"><path d="M24.85938,1.34375c-5.375,0 -10.07917,3.89792 -11.15417,9.13855l-9.67395,48.375c-0.80625,4.3 0.2698,8.86823 3.09167,12.2276c2.82188,3.35938 6.9875,5.375 11.42187,5.375h108.0354c9.54063,0 17.87345,-6.8526 19.7547,-16.25885l9.67395,-48.1073c0.26875,-1.6125 1.7474,-2.6875 3.22552,-2.6875c1.88125,0 3.35938,1.47813 3.35938,3.35938v59.79688c0,2.28437 1.74687,4.03125 4.03125,4.03125c2.28438,0 4.03125,-1.74688 4.03125,-4.03125v-59.79687c0,-6.31562 -5.10625,-11.42187 -11.42187,-11.42187zM24.85938,9.40625h123.49115c-0.13438,0.40312 -0.27032,0.67292 -0.27032,1.07605l-9.67395,48.375c-1.075,5.64375 -6.04792,9.67395 -11.82605,9.67395h-108.0354c-2.01562,0 -3.8974,-0.94167 -5.24115,-2.4198c-1.34375,-1.6125 -1.74687,-3.62708 -1.34375,-5.6427l9.67395,-48.375c0.26875,-1.6125 1.7474,-2.6875 3.22553,-2.6875zM40.18127,14.97809c-1.85737,0.01837 -3.54729,1.29756 -3.90002,3.29639l-8.0625,40.58282c-0.5375,2.28438 0.94167,4.29948 3.09167,4.83698c0.26875,0 0.53698,0.13385 0.80573,0.13385c1.88125,0 3.62865,-1.34428 3.8974,-3.22553l8.19635,-40.85052c0.40313,-2.15 -0.94115,-4.3 -3.22553,-4.70312c-0.26875,-0.05039 -0.53776,-0.07349 -0.8031,-0.07086zM68.40002,14.97809c-1.85737,0.01837 -3.54729,1.29756 -3.90002,3.29639l-8.0625,40.58282c-0.5375,2.28438 0.94167,4.29948 3.09167,4.83698c0.26875,0 0.53698,0.13385 0.80573,0.13385c1.88125,0 3.62865,-1.34428 3.8974,-3.22553l8.19635,-40.85052c0.40313,-2.15 -0.94115,-4.3 -3.22553,-4.70312c-0.26875,-0.05039 -0.53776,-0.07349 -0.8031,-0.07086zM96.61877,14.97809c-1.85737,0.01837 -3.54729,1.29756 -3.90002,3.29639l-8.0625,40.58282c-0.5375,2.28438 0.94167,4.29948 3.09167,4.83698c0.26875,0 0.53698,0.13385 0.80573,0.13385c1.88125,0 3.62865,-1.34428 3.8974,-3.22553l8.19635,-40.85052c0.40312,-2.15 -0.94115,-4.3 -3.22553,-4.70312c-0.26875,-0.05039 -0.53776,-0.07349 -0.8031,-0.07086zM124.83752,14.97809c-1.85737,0.01837 -3.54729,1.29756 -3.90002,3.29639l-8.0625,40.58282c-0.5375,2.28438 0.94167,4.29948 3.09167,4.83698c0.26875,0 0.53698,0.13385 0.80573,0.13385c1.88125,0 3.62865,-1.34428 3.8974,-3.22553l8.19635,-40.85052c0.40312,-2.15 -0.94115,-4.3 -3.22553,-4.70312c-0.26875,-0.05039 -0.53776,-0.07349 -0.8031,-0.07086zM18.8125,92.71875c-2.28438,0 -4.03125,1.74688 -4.03125,4.03125v65.84375h-9.40625c-2.28438,0 -4.03125,1.74687 -4.03125,4.03125c0,2.28438 1.74687,4.03125 4.03125,4.03125h13.4375c2.28438,0 4.03125,-1.74687 4.03125,-4.03125v-65.84375h25.53125v65.84375c0,2.28438 1.74687,4.03125 4.03125,4.03125h114.21875c2.28438,0 4.03125,-1.74687 4.03125,-4.03125v-56.4375c0,-2.28437 -1.74687,-4.03125 -4.03125,-4.03125c-2.28438,0 -4.03125,1.74688 -4.03125,4.03125v52.40625h-106.15625v-65.84375c0,-2.28437 -1.74687,-4.03125 -4.03125,-4.03125zM73.90625,92.71875c-2.28437,0 -4.03125,1.74688 -4.03125,4.03125v49.71875c0,2.28438 1.74688,4.03125 4.03125,4.03125h73.90625c2.28438,0 4.03125,-1.74687 4.03125,-4.03125v-49.71875c0,-2.28437 -1.74687,-4.03125 -4.03125,-4.03125zM77.9375,100.78125h65.84375v41.65625h-65.84375z"></path></g></g></svg>